<svg xmlns="http://www.w3.org/2000/svg" width="35" height="40" viewBox="0 0 35 40">
  <g id="trash" transform="translate(-48)">
    <path id="Path_3" data-name="Path 3" d="M79.635,5h-7.4V3.75A3.907,3.907,0,0,0,68.192,0H62.808a3.907,3.907,0,0,0-4.038,3.75V5h-7.4A3.256,3.256,0,0,0,48,8.125V12.5a1.3,1.3,0,0,0,1.346,1.25h.736l1.163,22.678A3.915,3.915,0,0,0,55.279,40H75.721a3.915,3.915,0,0,0,4.034-3.572L80.918,13.75h.736A1.3,1.3,0,0,0,83,12.5V8.125A3.256,3.256,0,0,0,79.635,5ZM61.462,3.75A1.3,1.3,0,0,1,62.808,2.5h5.385a1.3,1.3,0,0,1,1.346,1.25V5H61.462ZM50.692,8.125a.651.651,0,0,1,.673-.625H79.635a.651.651,0,0,1,.673.625V11.25H50.692ZM77.066,36.309A1.3,1.3,0,0,1,75.721,37.5H55.279a1.3,1.3,0,0,1-1.345-1.191L52.777,13.75H78.223Z" fill="#fff"/>
    <path id="Path_4" data-name="Path 4" d="M241.346,226.75a1.3,1.3,0,0,0,1.346-1.25V209.25a1.35,1.35,0,0,0-2.692,0V225.5A1.3,1.3,0,0,0,241.346,226.75Z" transform="translate(-175.846 -191.75)" fill="#fff"/>
    <path id="Path_5" data-name="Path 5" d="M321.346,226.75a1.3,1.3,0,0,0,1.346-1.25V209.25a1.35,1.35,0,0,0-2.692,0V225.5A1.3,1.3,0,0,0,321.346,226.75Z" transform="translate(-249.115 -191.75)" fill="#fff"/>
    <path id="Path_6" data-name="Path 6" d="M161.346,226.75a1.3,1.3,0,0,0,1.346-1.25V209.25a1.35,1.35,0,0,0-2.692,0V225.5A1.3,1.3,0,0,0,161.346,226.75Z" transform="translate(-102.577 -191.75)" fill="#fff"/>
  </g>
</svg>
